<?xml version="1.0" encoding="UTF-8"?>
<!DOCTYPE svg PUBLIC "-//W3C//DTD SVG 1.1//EN" "http://www.w3.org/Graphics/SVG/1.1/DTD/svg11.dtd">
<!-- Creator: CorelDRAW X7 -->
<svg xmlns="http://www.w3.org/2000/svg" xml:space="preserve" width="47.318in" height="35.944in" version="1.1" style="shape-rendering:geometricPrecision; text-rendering:geometricPrecision; image-rendering:optimizeQuality; fill-rule:evenodd; clip-rule:evenodd"
viewBox="0 0 47318 35944"
 xmlns:xlink="http://www.w3.org/1999/xlink">
 <defs>
  <style type="text/css">
   <![CDATA[
    .fil0 {fill:#0C01FF}
   ]]>
  </style>
 </defs>
 <g id="Capa_x0020_1">
  <metadata id="CorelCorpID_0Corel-Layer"/>
  <g id="_1865734593024">
   <path class="fil0" d="M11871 10322c-6478,5681 -11800,10346 -11827,10368l-48 41 2979 0 2979 -2 8851 -7396 8850 -7394 8852 7394 8850 7396 2979 2 2978 0 -45 -39c-25,-21 -2594,-2272 -5711,-5003l-5665 -4965 0 -5366 -1 -5363 -2625 0 -2625 0 -3 3058 -4 3057 -3484 -3054c-1916,-1679 -3489,-3056 -3493,-3057 -5,-2 -5309,4644 -11787,10323l0 0z"/>
   <path class="fil0" d="M15854 14339l-7794 6385 -2 7607 0 7608 6049 0 6048 0 0 -5465 0 -5466 3500 0 3500 0 0 5466 0 5465 6049 0 6049 0 0 -7608 -2 -7607 -7791 -6382c-4285,-3510 -7796,-6384 -7802,-6385 -5,-1 -3516,2870 -7804,6382l0 0z"/>
  </g>
 </g>
</svg>
